<svg xmlns="http://www.w3.org/2000/svg" xmlns:xlink="http://www.w3.org/1999/xlink" width="500" zoomAndPan="magnify" viewBox="0 0 375 374.999991" height="500" preserveAspectRatio="xMidYMid meet" version="1.0"><defs><g/><clipPath id="a7501d7f1d"><path d="M 114 124.1875 L 262 124.1875 L 262 187 L 114 187 Z M 114 124.1875 " clip-rule="nonzero"/></clipPath><clipPath id="ff223f62b7"><path d="M 137 171 L 163 171 L 163 196.9375 L 137 196.9375 Z M 137 171 " clip-rule="nonzero"/></clipPath><clipPath id="bc25650486"><path d="M 221 171 L 247 171 L 247 196.9375 L 221 196.9375 Z M 221 171 " clip-rule="nonzero"/></clipPath></defs><g clip-path="url(#a7501d7f1d)"><path fill="#ffd427" d="M 256.382812 181.828125 L 251.714844 181.828125 L 251.714844 179.132812 L 256.382812 179.132812 Z M 215.914062 173.730469 C 215.914062 174.953125 214.929688 175.945312 213.710938 175.945312 C 212.78125 175.945312 210.210938 175.945312 207.445312 175.945312 L 207.445312 159.910156 C 209.226562 158.976562 209.226562 156.460938 207.445312 155.53125 L 207.445312 139.492188 C 210.21875 139.492188 212.78125 139.492188 213.710938 139.492188 C 214.929688 139.492188 215.914062 140.488281 215.914062 141.699219 Z M 215.914062 181.828125 L 168.097656 181.828125 L 168.097656 179.132812 L 215.914062 179.132812 Z M 157.699219 158.226562 L 157.699219 142.34375 C 162.835938 142.34375 167.925781 142.34375 172.539062 142.34375 L 172.539062 158.226562 C 167.9375 158.226562 162.835938 158.226562 157.699219 158.226562 Z M 155.425781 158.226562 C 150.296875 158.226562 145.195312 158.226562 140.59375 158.226562 L 140.59375 142.34375 C 145.207031 142.34375 150.296875 142.34375 155.425781 142.34375 Z M 174.816406 142.34375 C 182.191406 142.34375 188.039062 142.34375 190.296875 142.34375 C 191.242188 142.34375 192.011719 143.113281 192.011719 144.054688 L 192.011719 156.507812 C 192.011719 157.457031 191.242188 158.226562 190.296875 158.226562 C 188.445312 158.226562 182.488281 158.226562 174.816406 158.226562 Z M 196.707031 141.699219 C 196.707031 140.488281 197.6875 139.492188 198.90625 139.492188 C 199.835938 139.492188 202.410156 139.492188 205.171875 139.492188 L 205.171875 155.53125 C 203.394531 156.460938 203.394531 158.976562 205.171875 159.910156 L 205.171875 175.945312 C 202.410156 175.945312 199.835938 175.945312 198.90625 175.945312 C 197.6875 175.945312 196.707031 174.953125 196.707031 173.730469 Z M 138.320312 158.226562 C 130.644531 158.226562 124.6875 158.226562 122.835938 158.226562 C 121.890625 158.226562 121.121094 157.457031 121.121094 156.507812 L 121.121094 144.054688 C 121.121094 143.113281 121.890625 142.34375 122.835938 142.34375 C 125.050781 142.34375 130.90625 142.34375 138.320312 142.34375 Z M 260.84375 181.828125 L 260.816406 181.828125 L 260.816406 175.402344 C 260.816406 174.039062 259.714844 172.933594 258.339844 172.933594 L 256.382812 172.933594 L 256.382812 162.425781 C 256.382812 158.644531 253.324219 155.574219 249.550781 155.574219 L 226.257812 155.574219 L 226.257812 129.113281 C 226.257812 126.316406 223.875 124.117188 221.097656 124.351562 L 196.136719 126.449219 L 190.574219 129.664062 L 127.386719 129.664062 C 121.539062 129.664062 116.796875 134.414062 116.796875 140.28125 L 116.796875 177.285156 C 116.796875 178.300781 117.621094 179.132812 118.640625 179.132812 L 132.304688 179.132812 L 132.304688 181.828125 L 115.570312 181.828125 C 114.757812 181.828125 114.097656 182.492188 114.097656 183.3125 L 114.097656 185.089844 C 114.097656 185.902344 114.757812 186.5625 115.570312 186.5625 L 134.445312 186.5625 C 133.011719 176.886719 140.519531 168.226562 150.199219 168.226562 C 159.902344 168.226562 167.394531 176.90625 165.960938 186.5625 L 218.0625 186.5625 C 216.628906 176.914062 224.101562 168.226562 233.816406 168.226562 C 242.652344 168.226562 249.746094 175.449219 249.746094 184.199219 C 249.746094 184.996094 249.683594 185.792969 249.566406 186.5625 L 260.84375 186.5625 C 261.484375 186.5625 261.996094 186.046875 261.996094 185.40625 L 261.996094 182.988281 C 261.996094 182.347656 261.484375 181.828125 260.84375 181.828125 " fill-opacity="1" fill-rule="nonzero"/></g><g clip-path="url(#ff223f62b7)"><path fill="#737373" d="M 150.199219 189.234375 C 147.75 189.234375 145.710938 187.46875 145.269531 185.140625 C 144.683594 182.027344 147.066406 179.160156 150.199219 179.160156 C 152.652344 179.160156 154.695312 180.925781 155.136719 183.25 C 155.722656 186.363281 153.339844 189.234375 150.199219 189.234375 Z M 150.199219 171.601562 C 142.355469 171.601562 136.394531 178.78125 137.875 186.5625 C 138.976562 192.382812 144.078125 196.789062 150.199219 196.789062 C 158.050781 196.789062 164.007812 189.621094 162.527344 181.828125 C 161.425781 176.019531 156.335938 171.601562 150.199219 171.601562 " fill-opacity="1" fill-rule="nonzero"/></g><g clip-path="url(#bc25650486)"><path fill="#737373" d="M 233.816406 189.25 C 230.683594 189.25 228.289062 186.382812 228.886719 183.261719 C 229.90625 177.875 237.707031 177.792969 238.753906 183.261719 C 239.347656 186.398438 236.9375 189.25 233.816406 189.25 Z M 221.484375 181.828125 C 220.003906 189.621094 225.96875 196.789062 233.816406 196.789062 C 241.632812 196.789062 247.636719 189.660156 246.144531 181.828125 C 243.546875 168.144531 224.046875 168.363281 221.484375 181.828125 " fill-opacity="1" fill-rule="nonzero"/></g><g fill="#000000" fill-opacity="1"><g transform="translate(125.979093, 224.499213)"><g><path d="M 11.847656 -21.113281 C 6.238281 -21.113281 1.621094 -17.394531 1.621094 -10.199219 C 1.621094 -3.179688 6.089844 0.417969 11.636719 0.417969 C 16.824219 0.417969 20.636719 -2.128906 21.144531 -7.109375 L 21.175781 -7.40625 L 15.777344 -7.40625 L 15.714844 -7.109375 C 15.265625 -4.828125 13.917969 -3.539062 11.816406 -3.539062 C 9.417969 -3.539062 7.257812 -5.308594 7.257812 -10.527344 C 7.257812 -14.996094 9.207031 -17.15625 11.785156 -17.15625 C 13.976562 -17.15625 15.324219 -16.105469 15.777344 -13.886719 L 15.835938 -13.585938 L 21.234375 -13.585938 L 21.203125 -13.886719 C 20.785156 -17.964844 17.753906 -21.113281 11.847656 -21.113281 Z M 11.847656 -21.113281 "/></g></g></g><g fill="#000000" fill-opacity="1"><g transform="translate(147.990543, 224.499213)"><g><path d="M 7.796875 0 L 7.796875 -20.695312 L 2.398438 -20.695312 L 2.398438 0 Z M 7.796875 0 "/></g></g></g><g fill="#000000" fill-opacity="1"><g transform="translate(157.406878, 224.499213)"><g><path d="M 19.253906 -16.496094 L 19.253906 -20.695312 L 0.417969 -20.695312 L 0.417969 -16.496094 L 7.136719 -16.496094 L 7.136719 0 L 12.535156 0 L 12.535156 -16.496094 Z M 19.253906 -16.496094 "/></g></g></g><g fill="#000000" fill-opacity="1"><g transform="translate(176.359517, 224.499213)"><g><path d="M 13.105469 -7.917969 L 20.394531 -20.695312 L 14.488281 -20.695312 L 10.558594 -12.507812 L 6.476562 -20.695312 L 0.417969 -20.695312 L 7.707031 -7.917969 L 7.707031 0 L 13.105469 0 Z M 13.105469 -7.917969 "/></g></g></g><g fill="#000000" fill-opacity="1"><g transform="translate(196.241795, 224.499213)"><g/></g></g><g fill="#000000" fill-opacity="1"><g transform="translate(201.519741, 224.499213)"><g><path d="M 12.265625 -11.039062 L 12.265625 -6.839844 L 16.285156 -6.839844 C 15.535156 -4.558594 14.15625 -3.539062 12.058594 -3.539062 C 9.507812 -3.539062 7.257812 -5.308594 7.257812 -10.527344 C 7.257812 -14.996094 9.449219 -17.15625 12.085938 -17.15625 C 14.277344 -17.15625 15.625 -16.105469 16.074219 -13.886719 L 16.136719 -13.585938 L 21.535156 -13.585938 L 21.503906 -13.886719 C 21.085938 -17.964844 18.054688 -21.113281 12.148438 -21.113281 C 6.476562 -21.113281 1.621094 -17.394531 1.621094 -10.199219 C 1.621094 -3.238281 5.488281 0.417969 11.007812 0.417969 C 13.195312 0.417969 14.605469 0.0898438 15.777344 -0.898438 L 16.675781 -3.179688 L 17.1875 0 L 21.382812 0 L 21.382812 -11.039062 Z M 12.265625 -11.039062 "/></g></g></g><g fill="#000000" fill-opacity="1"><g transform="translate(224.280894, 224.499213)"><g><path d="M 12.207031 -21.113281 C 5.757812 -21.113281 1.621094 -17.003906 1.621094 -10.347656 C 1.621094 -3.71875 5.757812 0.417969 12.207031 0.417969 C 18.65625 0.417969 22.792969 -3.71875 22.792969 -10.347656 C 22.792969 -17.003906 18.65625 -21.113281 12.207031 -21.113281 Z M 12.207031 -3.539062 C 9.085938 -3.539062 7.136719 -5.96875 7.136719 -10.347656 C 7.136719 -14.757812 9.085938 -17.15625 12.207031 -17.15625 C 15.324219 -17.15625 17.277344 -14.757812 17.277344 -10.347656 C 17.277344 -5.96875 15.324219 -3.539062 12.207031 -3.539062 Z M 12.207031 -3.539062 "/></g></g></g><g fill="#000000" fill-opacity="1"><g transform="translate(117.873245, 246.963293)"><g><path d="M 5.417969 0 L 5.417969 -8.871094 L 8.664062 -8.871094 L 8.664062 -10.679688 L 0.140625 -10.679688 L 0.140625 -8.871094 L 3.402344 -8.871094 L 3.402344 0 Z M 5.417969 0 "/></g></g></g><g fill="#000000" fill-opacity="1"><g transform="translate(128.088322, 246.963293)"><g/></g></g><g fill="#000000" fill-opacity="1"><g transform="translate(133.238232, 246.963293)"><g><path d="M 7.261719 -4.632812 C 8.300781 -5.121094 8.941406 -6.128906 8.941406 -7.53125 C 8.941406 -9.742188 7.558594 -10.679688 5.554688 -10.679688 L 0.953125 -10.679688 L 0.953125 0 L 2.96875 0 L 2.96875 -4.269531 L 5.347656 -4.269531 L 7.039062 0 L 9.179688 0 Z M 5.277344 -8.871094 C 6.339844 -8.871094 6.941406 -8.367188 6.941406 -7.460938 C 6.941406 -6.523438 6.355469 -6.03125 5.277344 -6.03125 L 2.96875 -6.03125 L 2.96875 -8.871094 Z M 5.277344 -8.871094 "/></g></g></g><g fill="#000000" fill-opacity="1"><g transform="translate(144.278852, 246.963293)"><g/></g></g><g fill="#000000" fill-opacity="1"><g transform="translate(149.428761, 246.963293)"><g><path d="M 2.210938 0 L 2.925781 -2.195312 L 6.996094 -2.195312 L 7.726562 0 L 9.839844 0 L 6.074219 -10.679688 L 3.863281 -10.679688 L 0.0976562 0 Z M 4.96875 -8.480469 L 6.4375 -3.960938 L 3.5 -3.960938 Z M 4.96875 -8.480469 "/></g></g></g><g fill="#000000" fill-opacity="1"><g transform="translate(160.763218, 246.963293)"><g/></g></g><g fill="#000000" fill-opacity="1"><g transform="translate(165.91313, 246.963293)"><g><path d="M 2.96875 0 L 2.96875 -7.65625 L 7.332031 0 L 9.613281 0 L 9.613281 -10.679688 L 7.597656 -10.679688 L 7.597656 -3.035156 L 3.21875 -10.679688 L 0.953125 -10.679688 L 0.953125 0 Z M 2.96875 0 "/></g></g></g><g fill="#000000" fill-opacity="1"><g transform="translate(177.877229, 246.963293)"><g/></g></g><g fill="#000000" fill-opacity="1"><g transform="translate(183.027139, 246.963293)"><g><path d="M 5.191406 0.195312 C 7.710938 0.195312 9.179688 -1.078125 9.179688 -3.09375 C 9.179688 -5.515625 7.066406 -5.988281 5.289062 -6.382812 C 3.988281 -6.675781 2.839844 -6.925781 2.839844 -7.90625 C 2.839844 -8.71875 3.570312 -9.152344 4.578125 -9.152344 C 5.667969 -9.152344 6.578125 -8.636719 6.84375 -7.5 L 8.902344 -7.5 C 8.566406 -9.808594 6.675781 -10.875 4.617188 -10.875 C 2.464844 -10.875 0.839844 -9.796875 0.839844 -7.738281 C 0.839844 -5.484375 2.828125 -5.050781 4.578125 -4.660156 C 5.933594 -4.367188 7.152344 -4.101562 7.152344 -2.996094 C 7.152344 -1.972656 6.3125 -1.527344 5.207031 -1.527344 C 4.085938 -1.527344 2.925781 -1.945312 2.574219 -3.472656 L 0.488281 -3.472656 C 0.753906 -0.714844 3.136719 0.195312 5.191406 0.195312 Z M 5.191406 0.195312 "/></g></g></g><g fill="#000000" fill-opacity="1"><g transform="translate(194.165707, 246.963293)"><g/></g></g><g fill="#000000" fill-opacity="1"><g transform="translate(199.315617, 246.963293)"><g><path d="M 2.96875 0 L 2.96875 -4.269531 L 5.554688 -4.269531 C 7.558594 -4.269531 8.941406 -5.472656 8.941406 -7.53125 C 8.941406 -9.742188 7.558594 -10.679688 5.554688 -10.679688 L 0.953125 -10.679688 L 0.953125 0 Z M 2.96875 -8.871094 L 5.277344 -8.871094 C 6.339844 -8.871094 6.941406 -8.367188 6.941406 -7.460938 C 6.941406 -6.523438 6.355469 -6.03125 5.277344 -6.03125 L 2.96875 -6.03125 Z M 2.96875 -8.871094 "/></g></g></g><g fill="#000000" fill-opacity="1"><g transform="translate(210.034416, 246.963293)"><g/></g></g><g fill="#000000" fill-opacity="1"><g transform="translate(215.184331, 246.963293)"><g><path d="M 5.722656 0.195312 C 9.265625 0.195312 10.917969 -2.394531 10.917969 -5.347656 C 10.917969 -8.300781 9.265625 -10.875 5.722656 -10.875 C 2.195312 -10.875 0.546875 -8.300781 0.546875 -5.347656 C 0.546875 -2.394531 2.195312 0.195312 5.722656 0.195312 Z M 5.722656 -1.609375 C 3.777344 -1.609375 2.644531 -3.121094 2.644531 -5.347656 C 2.644531 -7.558594 3.777344 -9.054688 5.722656 -9.054688 C 7.695312 -9.054688 8.816406 -7.558594 8.816406 -5.347656 C 8.816406 -3.121094 7.695312 -1.609375 5.722656 -1.609375 Z M 5.722656 -1.609375 "/></g></g></g><g fill="#000000" fill-opacity="1"><g transform="translate(228.057927, 246.963293)"><g/></g></g><g fill="#000000" fill-opacity="1"><g transform="translate(233.207836, 246.963293)"><g><path d="M 7.261719 -4.632812 C 8.300781 -5.121094 8.941406 -6.128906 8.941406 -7.53125 C 8.941406 -9.742188 7.558594 -10.679688 5.554688 -10.679688 L 0.953125 -10.679688 L 0.953125 0 L 2.96875 0 L 2.96875 -4.269531 L 5.347656 -4.269531 L 7.039062 0 L 9.179688 0 Z M 5.277344 -8.871094 C 6.339844 -8.871094 6.941406 -8.367188 6.941406 -7.460938 C 6.941406 -6.523438 6.355469 -6.03125 5.277344 -6.03125 L 2.96875 -6.03125 L 2.96875 -8.871094 Z M 5.277344 -8.871094 "/></g></g></g><g fill="#000000" fill-opacity="1"><g transform="translate(244.248454, 246.963293)"><g/></g></g><g fill="#000000" fill-opacity="1"><g transform="translate(249.398364, 246.963293)"><g><path d="M 5.417969 0 L 5.417969 -8.871094 L 8.664062 -8.871094 L 8.664062 -10.679688 L 0.140625 -10.679688 L 0.140625 -8.871094 L 3.402344 -8.871094 L 3.402344 0 Z M 5.417969 0 "/></g></g></g></svg>